<svg width="90" height="40" viewBox="0 0 90 40" fill="none" xmlns="http://www.w3.org/2000/svg">
<path d="M9.26798 33.6843C8.50885 34.9859 8.9526 36.6566 10.2575 37.41C11.5544 38.1588 13.2126 37.7184 13.967 36.4248L17.4007 30.5372L17.4007 25.4078C17.3027 25.3687 17.2055 25.3278 17.1093 25.2854L12.6723 27.8471L9.26798 33.6843Z" fill="#25223E"/>
<path d="M12.6723 27.8471L17.1093 25.2854C16.3135 24.9343 15.582 24.4735 14.9389 23.9607L12.6723 27.8471Z" fill="#25223E"/>
<path d="M4.02046 26.5608C2.71953 27.3119 2.2738 28.9754 3.02489 30.2763C3.77598 31.5772 5.43947 32.023 6.74039 31.2719L12.6723 27.8471L14.9389 23.9607C14.5138 23.6217 14.1272 23.2601 13.7861 22.8924L10.3743 22.8924L4.02046 26.5608Z" fill="#25223E"/>
<path d="M2.70546 17.4815C1.21127 17.4815 -1.6919e-07 18.6928 0 20.1869C1.6919e-07 21.6811 1.21127 22.8924 2.70545 22.8924L10.3743 22.8924L12.7389 21.5272C12.3457 20.8825 12.1288 20.286 12.1288 19.836C12.1288 19.4637 12.2282 19.0467 12.4143 18.6098L10.46 17.4815L2.70546 17.4815Z" fill="#25223E"/>
<path d="M10.3743 22.8924L13.7861 22.8924C13.3626 22.4359 13.0091 21.9702 12.7389 21.5272L10.3743 22.8924Z" fill="#25223E"/>
<path d="M6.79269 9.08276C5.49176 8.33167 3.82828 8.7774 3.07719 10.0783C2.3261 11.3793 2.77183 13.0427 4.07275 13.7938L10.46 17.4815L13.06 17.4815C13.473 16.9033 14.0103 16.3271 14.6459 15.805L12.7224 12.5063L6.79269 9.08276Z" fill="#25223E"/>
<path d="M12.7224 12.5063L14.6459 15.805C15.1754 15.3701 15.773 14.9727 16.4235 14.6431L12.7224 12.5063Z" fill="#25223E"/>
<path d="M10.46 17.4815L12.4143 18.6098C12.5708 18.2427 12.7885 17.8617 13.06 17.4815L10.46 17.4815Z" fill="#25223E"/>
<path d="M13.8071 3.56715C13.0527 2.27341 11.3945 1.8329 10.0975 2.5817C8.79262 3.33506 8.34883 5.00565 9.1078 6.30727L12.7224 12.5063L16.4235 14.6431C16.7375 14.484 17.0638 14.3407 17.4007 14.2166L17.4007 9.73019L13.8071 3.56715Z" fill="#25223E"/>
<path fill-rule="evenodd" clip-rule="evenodd" d="M17.4007 22.8983C17.9464 23.4186 18.6302 23.7953 19.3916 23.9677L19.4076 23.9713C19.7059 24.0376 20.0161 24.0726 20.3344 24.0726C20.64 24.0726 20.9381 24.0404 21.2255 23.9791C21.8192 23.8524 22.367 23.6019 22.8406 23.2557V20L22.8406 16.3865C22.2614 15.9632 21.5712 15.6828 20.8218 15.5973C20.6618 15.579 20.4992 15.5696 20.3344 15.5696C20.1583 15.5696 19.9848 15.5803 19.8143 15.6011C19.4009 15.6516 19.0059 15.7613 18.6379 15.9216C18.1773 16.1223 17.7592 16.4021 17.4007 16.744V20V22.8983ZM20.9085 13.7249C21.2927 13.7576 21.6694 13.818 22.0366 13.9023C22.2786 13.9595 22.4965 14.0202 22.669 14.0735C22.7265 14.0914 22.7837 14.1099 22.8406 14.129V10.4121V2.71993C22.8406 1.21776 21.6228 -1.31325e-07 20.1207 0C18.6185 1.31325e-07 17.4007 1.21775 17.4007 2.71993V9.73019L17.4007 14.2166C18.131 13.9475 18.9111 13.7685 19.7237 13.7141C19.8961 13.7026 20.07 13.6966 20.2452 13.6966C20.4685 13.6966 20.6898 13.7063 20.9085 13.7249Z" fill="#25223E"/>
<path d="M17.4007 25.4078L17.4007 30.5372L20.059 25.9793C18.5174 25.924 17.4007 25.4078 17.4007 25.4078Z" fill="#25223E"/>
<path d="M17.4007 37.2801C17.4007 38.7822 18.6185 40 20.1207 40C21.6228 40 22.8406 38.7822 22.8406 37.2801L22.8406 29.8589L20.5786 25.9796C20.4009 25.9858 20.2274 25.9853 20.059 25.9793L17.4007 30.5372V37.2801Z" fill="#25223E"/>
<path d="M22.8406 29.8589V25.5028C22.0585 25.8225 21.2855 25.9547 20.5786 25.9796L22.8406 29.8589Z" fill="#25223E"/>
<path fill-rule="evenodd" clip-rule="evenodd" d="M17.4007 16.744C16.5888 17.5183 16.0829 18.6106 16.0829 19.8211C16.0829 21.0316 16.5888 22.124 17.4007 22.8983C17.9464 23.4186 18.6302 23.7953 19.3916 23.9677L19.4076 23.9713C19.7059 24.0376 20.0161 24.0726 20.3344 24.0726C20.64 24.0726 20.9381 24.0404 21.2255 23.9791C21.8192 23.8524 22.367 23.6019 22.8406 23.2557V20L22.8406 16.3865C22.2614 15.9632 21.5712 15.6828 20.8218 15.5973C20.6618 15.579 20.4992 15.5696 20.3344 15.5696C20.1583 15.5696 19.9848 15.5803 19.8143 15.6011C19.4009 15.6516 19.0059 15.7613 18.6379 15.9216C18.1773 16.1223 17.7592 16.4021 17.4007 16.744Z" fill="#25223E"/>
<path d="M34.1558 14.7998C34.1558 15.7159 33.4132 16.4585 32.4971 16.4585C31.581 16.4585 30.8384 15.7159 30.8384 14.7998V3.27431C30.8384 2.08215 31.8048 1.11572 32.997 1.11572C33.7207 1.11572 34.3962 1.47836 34.7961 2.08151L41.2886 11.874C41.4481 12.1147 41.2755 12.4362 40.9867 12.4362C40.7868 12.4362 40.6246 12.2741 40.6246 12.0741V2.7744C40.6246 1.85834 41.3672 1.11572 42.2833 1.11572C43.1994 1.11572 43.942 1.85834 43.942 2.7744V14.2992C43.942 15.4917 42.9752 16.4585 41.7826 16.4585C41.0594 16.4585 40.3841 16.0964 39.9839 15.4939L33.4925 5.72085C33.3327 5.48033 33.5051 5.15876 33.7939 5.15876C33.9938 5.15876 34.1558 5.32077 34.1558 5.52063V14.7998Z" fill="#25223E"/>
<path d="M45.562 11.2544C45.562 10.1624 45.8038 9.2087 46.2876 8.39318C46.7852 7.56384 47.4625 6.9211 48.3195 6.46497C49.1903 6.00883 50.1786 5.78076 51.2844 5.78076C52.3902 5.78076 53.3716 6.00883 54.2286 6.46497C55.0855 6.9211 55.7559 7.56384 56.2397 8.39318C56.7373 9.2087 56.9861 10.1624 56.9861 11.2544C56.9861 12.3464 56.7373 13.3001 56.2397 14.1156C55.7559 14.9311 55.0855 15.567 54.2286 16.0231C53.3716 16.4792 52.3902 16.7073 51.2844 16.7073C50.1786 16.7073 49.1903 16.4792 48.3195 16.0231C47.4625 15.567 46.7852 14.9311 46.2876 14.1156C45.8038 13.3001 45.562 12.3464 45.562 11.2544ZM48.7756 11.2337C48.7756 11.7589 48.8793 12.222 49.0866 12.6228C49.3078 13.0098 49.605 13.3139 49.9782 13.5351C50.3514 13.7424 50.7868 13.8461 51.2844 13.8461C51.782 13.8461 52.2174 13.7424 52.5906 13.5351C52.9638 13.3139 53.2541 13.0098 53.4614 12.6228C53.6688 12.222 53.7724 11.7589 53.7724 11.2337C53.7724 10.7084 53.6688 10.2523 53.4614 9.86526C53.2541 9.47824 52.9638 9.18106 52.5906 8.97372C52.2174 8.75256 51.782 8.64198 51.2844 8.64198C50.7868 8.64198 50.3514 8.75256 49.9782 8.97372C49.605 9.18106 49.3078 9.47824 49.0866 9.86526C48.8793 10.2523 48.7756 10.7084 48.7756 11.2337Z" fill="#25223E"/>
<path d="M62.2291 16.4585C61.2666 16.4585 60.4027 15.8681 60.053 14.9714L57.4318 8.25034C57.0269 7.21221 57.7926 6.09176 58.9068 6.09176C59.5804 6.09176 60.1802 6.5179 60.4019 7.15392L61.2964 9.72013C61.559 10.4804 61.7802 11.1646 61.9599 11.7727C62.0481 12.0436 62.5813 12.0446 62.6669 11.7729C62.6797 11.7321 62.6929 11.6906 62.7063 11.6483C62.9136 11.0402 63.1486 10.3974 63.4112 9.72013L64.4278 7.06504C64.6522 6.47884 65.2149 6.09176 65.8425 6.09176C66.9243 6.09176 67.6575 7.19287 67.2403 8.19095L64.3843 15.0235C64.021 15.8927 63.1712 16.4585 62.2291 16.4585Z" fill="#25223E"/>
<path d="M71.4147 16.7281C70.3227 16.7281 69.4519 16.4309 68.8023 15.8365C68.1664 15.2283 67.8485 14.4197 67.8485 13.4107C67.8485 12.4569 68.1734 11.6967 68.823 11.13C69.4865 10.5633 70.4402 10.2316 71.6842 10.1348L74.4216 9.91972C74.5149 9.91238 74.5869 9.8345 74.5869 9.74086C74.5869 9.3953 74.5178 9.11194 74.3796 8.89079C74.2414 8.65581 74.0409 8.48303 73.7783 8.37245C73.5295 8.24805 73.2116 8.18585 72.8246 8.18585C72.1473 8.18585 71.6289 8.31025 71.2696 8.55905C70.7109 8.96128 70.1932 9.63719 69.5048 9.63719H69.4243C68.6914 9.63719 68.0635 9.02382 68.3125 8.33455C68.4088 8.06782 68.5375 7.81783 68.6986 7.58458C69.0994 7.00404 69.6662 6.55481 70.3988 6.2369C71.1452 5.91898 72.0091 5.76003 72.9904 5.76003C73.9995 5.76003 74.8495 5.93972 75.5407 6.2991C76.2456 6.65848 76.7778 7.18373 77.1371 7.87484C77.5103 8.56596 77.6969 9.40912 77.6969 10.4043V14.9424C77.6969 15.7797 77.0182 16.4585 76.1809 16.4585H75.1219C74.9812 16.4585 74.8616 16.3557 74.8405 16.2165C74.7961 15.9235 74.2144 15.7959 73.9765 15.9725C73.8333 16.0789 73.6705 16.1787 73.488 16.2719C72.8799 16.576 72.1887 16.7281 71.4147 16.7281ZM72.5343 14.3644C73.1425 14.3644 73.6401 14.2193 74.0271 13.929C74.4141 13.6249 74.6077 13.1757 74.6077 12.5813C74.6077 12.2806 74.3496 12.0447 74.0501 12.0716L72.9904 12.1667C72.2993 12.222 71.8086 12.3395 71.5184 12.5191C71.2419 12.685 71.1037 12.9338 71.1037 13.2656C71.1037 13.6388 71.2212 13.9152 71.4562 14.0949C71.6911 14.2746 72.0505 14.3644 72.5343 14.3644Z" fill="#25223E"/>
<path d="M84.1752 16.7281C83.1385 16.7281 82.2124 16.4931 81.3969 16.0231C80.5952 15.5532 79.9594 14.9104 79.4894 14.0949C79.0333 13.2656 78.8052 12.3187 78.8052 11.2544C78.8052 10.1763 79.0264 9.22943 79.4687 8.41392C79.9248 7.58458 80.5537 6.93493 81.3554 6.46497C82.1571 5.99501 83.0763 5.76003 84.113 5.76003C85.205 5.76003 86.1449 5.9881 86.9328 6.44423C87.7206 6.88655 88.3288 7.52237 88.7573 8.35171C89.1858 9.16723 89.4 10.1417 89.4 11.2751C89.4 11.7223 89.0386 12.0854 88.5914 12.0875L81.4927 12.1205C80.9402 12.1231 80.4942 11.6697 80.5058 11.1174C80.5171 10.5829 80.9536 10.1555 81.4881 10.1555H84.758C85.5698 10.1555 86.2859 9.37571 85.668 8.84932C85.2948 8.51758 84.7834 8.35171 84.1337 8.35171C83.5947 8.35171 83.1523 8.45538 82.8068 8.66272C82.475 8.87005 82.2262 9.19488 82.0604 9.63719C81.8945 10.0657 81.8116 10.6186 81.8116 11.2959C81.8116 12.2634 82.0051 12.9822 82.3921 13.4522C82.793 13.9083 83.4081 14.1364 84.2374 14.1364C84.8456 14.1364 85.3501 14.0327 85.7509 13.8254C85.7673 13.8169 85.7835 13.8083 85.7994 13.7995C86.3915 13.4736 86.9818 12.9546 87.6577 12.9546C88.5947 12.9546 89.3315 13.8283 88.8144 14.6097C88.5391 15.0257 88.1814 15.3932 87.7414 15.7121C86.7876 16.3894 85.5989 16.7281 84.1752 16.7281Z" fill="#25223E"/>
<path d="M29.9883 27.4253C29.9883 26.4992 30.2302 25.6837 30.714 24.9787C31.1978 24.26 31.8613 23.7002 32.7044 23.2993C33.5614 22.8846 34.5359 22.6773 35.6279 22.6773C36.7336 22.6773 37.6874 22.8708 38.4891 23.2578C39.2908 23.6449 39.9059 24.1909 40.3344 24.8958C40.5035 25.1654 40.6404 25.4542 40.7448 25.7623C41.0409 26.6352 40.2506 27.4045 39.3288 27.4045H39.0929C38.3014 27.4045 37.7136 26.6398 37.0999 26.1398C36.7267 25.8219 36.2222 25.6629 35.5864 25.6629C34.9091 25.6629 34.3631 25.8081 33.9484 26.0983C33.5476 26.3886 33.3472 26.7895 33.3472 27.3009C33.3472 27.7708 33.4716 28.1302 33.7204 28.379C33.9692 28.6278 34.3631 28.8075 34.9022 28.9181L37.2036 29.395C38.572 29.6714 39.588 30.1552 40.2514 30.8463C40.9149 31.5236 41.2466 32.4704 41.2466 33.6868C41.2466 34.6682 41.0047 35.5321 40.521 36.2785C40.0372 37.0111 39.353 37.5778 38.4683 37.9786C37.5975 38.3795 36.5747 38.5799 35.3998 38.5799C34.2664 38.5799 33.2711 38.3864 32.4142 37.9994C31.571 37.6123 30.9144 37.0664 30.4445 36.3614C30.2714 36.0888 30.1312 35.7992 30.0238 35.4928C29.719 34.6228 30.5075 33.8527 31.4293 33.8527H31.6231C32.4379 33.8527 33.0505 34.6457 33.6996 35.1381C34.1005 35.4422 34.6741 35.5943 35.4205 35.5943C36.1807 35.5943 36.782 35.4561 37.2243 35.1796C37.6666 34.8893 37.8878 34.5023 37.8878 34.0185C37.8878 33.59 37.7772 33.2583 37.5561 33.0233C37.3487 32.7883 36.9894 32.6225 36.4779 32.5257L34.135 32.0489C32.7666 31.7724 31.73 31.2472 31.025 30.4731C30.3339 29.6991 29.9883 28.6831 29.9883 27.4253Z" fill="#25223E"/>
<path d="M41.4825 29.2706C41.4825 28.5377 42.0766 27.9436 42.8094 27.9436H47.2879C48.0207 27.9436 48.6148 28.5377 48.6148 29.2706C48.6148 30.0034 48.0207 30.5975 47.2879 30.5975H42.8094C42.0766 30.5975 41.4825 30.0034 41.4825 29.2706ZM46.6451 36.7139C46.6451 37.5956 45.9304 38.3104 45.0486 38.3104C44.1669 38.3104 43.4522 37.5956 43.4522 36.7139V26.3264C43.4522 25.4447 44.1669 24.7299 45.0486 24.7299C45.9304 24.7299 46.6451 25.4447 46.6451 26.3264V36.7139Z" fill="#25223E"/>
<path d="M56.3113 29.5401C56.3113 28.6584 57.0261 27.9436 57.9078 27.9436C58.7895 27.9436 59.5043 28.6584 59.5043 29.5401V36.674C59.5043 37.5778 58.7717 38.3104 57.8679 38.3104H56.811C56.6298 38.3104 56.4747 38.1805 56.4429 38.0021C56.3852 37.6794 55.9398 37.5607 55.676 37.7553C55.4559 37.9176 55.2047 38.0611 54.9222 38.186C54.3416 38.4486 53.7404 38.5799 53.1183 38.5799C51.9434 38.5799 51.0104 38.2136 50.3193 37.481C49.642 36.7346 49.3034 35.7256 49.3034 34.4539V29.5401C49.3034 28.6584 50.0182 27.9436 50.8999 27.9436C51.7816 27.9436 52.4963 28.6584 52.4963 29.5401V33.2929C52.4963 34.136 52.6484 34.758 52.9525 35.1589C53.2566 35.5459 53.7334 35.7394 54.3831 35.7394C55.0742 35.7394 55.5649 35.5528 55.8552 35.1796C56.1593 34.7926 56.3113 34.1775 56.3113 33.3343V29.5401Z" fill="#25223E"/>
<path d="M65.4298 38.5799C64.4346 38.5799 63.5707 38.3587 62.8381 37.9164C62.1056 37.4741 61.5319 36.8521 61.1173 36.0504C60.7164 35.2349 60.516 34.2812 60.516 33.1892C60.516 32.0834 60.7233 31.1158 61.138 30.2865C61.5527 29.4433 62.1401 28.7868 62.9003 28.3168C63.6744 27.8469 64.5867 27.6119 65.6372 27.6119C66.2868 27.6119 66.8881 27.7294 67.441 27.9644C67.9334 28.1685 68.7472 27.8074 68.7472 27.2744V24.2738C68.7472 23.3921 69.462 22.6773 70.3437 22.6773C71.2254 22.6773 71.9402 23.3921 71.9402 24.2738V36.7136C71.9402 37.5955 71.2253 38.3104 70.3434 38.3104H69.2428C69.0662 38.3104 68.9174 38.1789 68.8955 38.0038C68.854 37.6723 68.3495 37.5395 68.0855 37.7442C67.8966 37.8907 67.6818 38.0241 67.441 38.1445C66.8466 38.4348 66.1762 38.5799 65.4298 38.5799ZM66.197 35.6565C66.6946 35.6565 67.13 35.5528 67.5032 35.3455C67.8902 35.1243 68.1874 34.8202 68.3947 34.4332C68.6159 34.0324 68.7265 33.5762 68.7265 33.0648C68.7265 32.5395 68.6159 32.0834 68.3947 31.6964C68.1874 31.3094 67.8902 31.0122 67.5032 30.8048C67.13 30.5837 66.6946 30.4731 66.197 30.4731C65.6994 30.4731 65.264 30.5837 64.8908 30.8048C64.5176 31.026 64.2273 31.3301 64.02 31.7171C63.8264 32.1041 63.7297 32.5534 63.7297 33.0648C63.7297 33.5762 63.8264 34.0254 64.02 34.4125C64.2273 34.7995 64.5176 35.1036 64.8908 35.3247C65.264 35.5459 65.6994 35.6565 66.197 35.6565Z" fill="#25223E"/>
<path d="M75.3124 38.3104C74.4307 38.3104 73.7159 37.5956 73.7159 36.7139V29.5401C73.7159 28.6584 74.4307 27.9436 75.3124 27.9436C76.1941 27.9436 76.9089 28.6584 76.9089 29.5401V36.7139C76.9089 37.5956 76.1941 38.3104 75.3124 38.3104ZM75.2917 26.3264C74.7803 26.3264 74.3449 26.1536 73.9855 25.8081C73.6399 25.4487 73.4671 25.0133 73.4671 24.5019C73.4671 23.9904 73.6399 23.5619 73.9855 23.2164C74.3449 22.8708 74.7803 22.698 75.2917 22.698C75.7893 22.698 76.2109 22.8708 76.5564 23.2164C76.9158 23.5619 77.0955 23.9904 77.0955 24.5019C77.0955 25.0133 76.9158 25.4487 76.5564 25.8081C76.2109 26.1536 75.7893 26.3264 75.2917 26.3264Z" fill="#25223E"/>
<path d="M78.1225 33.1063C78.1225 32.0143 78.3644 31.0606 78.8481 30.245C79.3457 29.4157 80.023 28.773 80.88 28.3168C81.7508 27.8607 82.7391 27.6326 83.8449 27.6326C84.9507 27.6326 85.9321 27.8607 86.7891 28.3168C87.6461 28.773 88.3164 29.4157 88.8002 30.245C89.2978 31.0606 89.5466 32.0143 89.5466 33.1063C89.5466 34.1982 89.2978 35.152 88.8002 35.9675C88.3164 36.783 87.6461 37.4188 86.7891 37.875C85.9321 38.3311 84.9507 38.5592 83.8449 38.5592C82.7391 38.5592 81.7508 38.3311 80.88 37.875C80.023 37.4188 79.3457 36.783 78.8481 35.9675C78.3644 35.152 78.1225 34.1982 78.1225 33.1063ZM81.3362 33.0855C81.3362 33.6108 81.4398 34.0738 81.6472 34.4747C81.8683 34.8617 82.1655 35.1658 82.5387 35.3869C82.9119 35.5943 83.3473 35.698 83.8449 35.698C84.3425 35.698 84.7779 35.5943 85.1511 35.3869C85.5243 35.1658 85.8146 34.8617 86.0219 34.4747C86.2293 34.0738 86.3329 33.6108 86.3329 33.0855C86.3329 32.5603 86.2293 32.1041 86.0219 31.7171C85.8146 31.3301 85.5243 31.0329 85.1511 30.8256C84.7779 30.6044 84.3425 30.4938 83.8449 30.4938C83.3473 30.4938 82.9119 30.6044 82.5387 30.8256C82.1655 31.0329 81.8683 31.3301 81.6472 31.7171C81.4398 32.1041 81.3362 32.5603 81.3362 33.0855Z" fill="#25223E"/>
</svg>
